<svg width="33" height="24" fill="none" xmlns="http://www.w3.org/2000/svg"><path d="M30.9 0H2.02C1.024 0 .215.809.215 1.806v19.508c0 .998.809 1.807 1.807 1.807h28.878c.998 0 1.806-.809 1.806-1.807V1.806C32.705.81 31.897 0 30.9 0Z" fill="#016FD0"/><path d="M16.457 8.338c0-.395-.386-.428-.549-.428h-.965v.798h.834c.18 0 .68.025.68-.37ZM23.776 7.981l-.515 1.311h1.046l-.53-1.31ZM1.972 9.243H3.01l-.502-1.275-.537 1.275ZM31.373 17.918h-1.875v-.892h1.873c.177 0 .446-.07.446-.33s-.245-.299-.406-.299h-.94c-.496 0-1.116-.263-1.116-1.197 0-.562.446-1.153 1.419-1.153h1.94v-.77h-19.64l-.549.727-.544-.727h-5.62v5.402h5.625l.513-.74.497.74h3.445v-1.272h.297a2.16 2.16 0 0 0 1.066-.158v1.427h2.304v-.874l.69.874H31.47c.95 0 1.256-.432 1.256-.432V17.17c-.183.488-.629.747-1.352.747Zm-21.04-2.997H8.181v.631h2.09v.79h-2.09v.686h2.152v.892H7.198V14.05h3.135v.872Zm4.291 2.997h-1.233l-.874-1.282-.917 1.282h-1.186l1.536-1.942-1.536-1.927h1.21l.893 1.209.934-1.209h1.19l-1.576 1.94 1.559 1.93Zm2.337-1.298h-1.262v1.298h-.973V14.05h2.081c.535 0 1.365.254 1.365 1.276a1.21 1.21 0 0 1-1.211 1.295Zm4.119 1.298-1.155-1.416h-.348v1.414h-.988v-3.867h2.159a1.24 1.24 0 0 1 1.3 1.298c0 .64-.408.95-.975 1.155l1.211 1.416H21.08Zm4.493 0h-3.155V14.05h3.144v.892h-2.147v.615h2.091v.823H23.4v.654h2.17l.004.885Zm2.286 0h-1.873v-.892h1.873c.176 0 .446-.07.446-.33s-.245-.299-.408-.299h-.941c-.495 0-1.104-.263-1.104-1.197 0-.562.446-1.153 1.418-1.153h1.936l-.401.892h-1.65c-.085 0-.337.078-.337.307a.308.308 0 0 0 .285.308l1.164.014a1.041 1.041 0 0 1 1.03 1.077c.003.832-.504 1.273-1.438 1.273Z" fill="#fff"/><path d="M15.488 11.674v-.845l.669.845h3.387v-.461c.308.336.823.461 1.483.461h2.098l.36-.796h.615l.352.796h3.292v-.952l.624.952h2.34V6.278h-2.402v1.01l-.652-1.01h-2.21v1.36l-.595-1.36h-3.568c-1.084 0-1.474.334-1.76.53v-.53H7.697l-.424 1.014-.392-1.014H4.188v1.427l-.607-1.428H1.39L.207 8.96v2.714h1.58l.356-.816.682.038.355.816 5.13-.036 7.178-.002Zm11.894-4.63 1.526 2.411v-2.41h.994v3.869H28.72L27.135 8.46v2.453h-.986v-3.87h1.233Zm-2.972 0 1.652 3.87h-1.066l-.359-.808H22.91l-.35.808h-1.033l1.65-3.87h1.234Zm-3.24 0h1.036v.937H21.19a.918.918 0 0 0-.98.997c0 .93.656 1.115.893 1.115h.39l-.39.82c-1.055 0-1.836-.601-1.836-1.904 0-1.055.564-1.964 1.902-1.964Zm-3.346 0h.946v3.87h-.945v-3.87Zm-2.076 0c1.588 0 1.668.846 1.668 1.276A1.182 1.182 0 0 1 16.4 9.515l1.274 1.399h-1.186L15.29 9.549h-.341v1.365h-.983l-.012-3.87h1.793Zm-5.439 0h3.093v.877h-2.165v.627h2.112v.794h-2.112v.715h2.165v.857h-3.09l-.003-3.87Zm-6.6 3.87-.355-.799h-1.72l-.358.799H.219l1.65-3.827h1.258l1.663 3.827H3.71Zm3.122 0-.975-2.777v2.777H4.86V7.098h1.537l.892 2.438.845-2.5h1.519v3.878h-.94l-.03-2.821-1.008 2.82H6.83ZM20.679 14.908h-1.115v.81H20.7a.406.406 0 0 0 .39-.405.389.389 0 0 0-.412-.405ZM16.76 14.908h-1.075v.925h1.075a.447.447 0 0 0 .466-.466.447.447 0 0 0-.466-.46ZM30.67 14.941c-.083 0-.337.078-.337.308a.308.308 0 0 0 .285.307l1.167.014a1.012 1.012 0 0 1 .94.636v-2.077l-.405.812h-1.65Z" fill="#fff"/></svg>