<svg width="34" height="24" fill="none" xmlns="http://www.w3.org/2000/svg"><path d="M31.288 0H2.41C1.412 0 .603.809.603 1.806v19.508c0 .998.809 1.807 1.807 1.807h28.878c.998 0 1.806-.809 1.806-1.807V1.806C33.094.81 32.286 0 31.288 0Z" fill="#CCC"/><path d="M18.26 18.143c3.569.016 6.813-2.899 6.813-6.467 0-3.887-3.25-6.574-6.812-6.572h-3.064c-3.606.007-6.565 2.701-6.565 6.581 0 3.555 2.966 6.467 6.571 6.467l3.058-.009Z" fill="#004A98"/><path d="M16.563 15.144V8.088a3.778 3.778 0 0 1 0 7.056Zm-5.129-3.528a3.791 3.791 0 0 1 2.422-3.528v7.056a3.791 3.791 0 0 1-2.426-3.528h.004Zm3.787-5.965a5.965 5.965 0 1 0 4.207 1.747 5.965 5.965 0 0 0-4.218-1.747" fill="#fff"/></svg>