<svg width="33" height="24" fill="none" xmlns="http://www.w3.org/2000/svg"><path d="M31.194 0H2.316C1.318 0 .509.809.509 1.806v19.508c0 .998.809 1.807 1.807 1.807h28.878c.998 0 1.807-.809 1.807-1.807V1.806C33 .81 32.19 0 31.194 0Z" fill="#221F20"/><path d="M9.49 9.014a2.346 2.346 0 0 1 3.041 1.756l1.607-.328A3.986 3.986 0 0 0 8.97 7.458l.52 1.556Z" fill="#FBC707"/><path d="m7.592 14.224 1.088-1.229a2.34 2.34 0 0 1-.792-1.756c0-.699.306-1.326.79-1.756L7.592 8.254a3.976 3.976 0 0 0-1.344 2.985c0 1.188.52 2.255 1.345 2.985Z" fill="#38A7E4"/><path d="M12.53 11.71a2.345 2.345 0 0 1-3.041 1.753l-.521 1.556a3.986 3.986 0 0 0 5.17-2.98l-1.608-.33Z" fill="#EF3120"/><path d="M18.757 12.562v.002l-.047-.031a1.287 1.287 0 0 1-.596.498c-.493.215-.95.16-1.279-.128l-.03.046-.56.837c.138.096.288.178.444.243a2.32 2.32 0 0 0 1.875-.026c.45-.195.804-.493 1.046-.87l-.853-.571Zm-1.748-2.066c-.52.224-.789.712-.733 1.285l2.206-.95c-.379-.446-.873-.593-1.473-.335Zm-1.464 2.551a2.803 2.803 0 0 1-.168-.322 2.366 2.366 0 0 1-.052-1.79c.237-.644.689-1.137 1.272-1.388.734-.316 1.545-.253 2.248.164.446.256.763.651 1.003 1.21.031.072.058.15.084.214l-4.387 1.912ZM21.466 8.313v4.657l.724.293-.412.96-.798-.333a.91.91 0 0 1-.395-.33 1.045 1.045 0 0 1-.154-.578V8.314h1.035ZM23.34 11.783c.001-.396.176-.752.453-.993l-.743-.828a2.427 2.427 0 0 0-.821 1.82c-.001.726.316 1.377.82 1.823l.74-.829a1.318 1.318 0 0 1-.448-.993ZM24.66 13.105a1.33 1.33 0 0 1-.418-.069l-.354 1.055a2.435 2.435 0 0 0 3.158-1.817l-1.091-.222a1.32 1.32 0 0 1-1.294 1.053ZM24.664 9.352c-.27 0-.53.043-.772.124l.352 1.056a1.32 1.32 0 0 1 1.711.99l1.091-.221a2.433 2.433 0 0 0-2.382-1.95Z" fill="#fff"/></svg>