<svg width="33" height="24" fill="none" xmlns="http://www.w3.org/2000/svg"><path d="M30.685 0H1.806C.81 0 0 .809 0 1.806v19.508c0 .998.809 1.807 1.806 1.807h28.879c.998 0 1.806-.809 1.806-1.807V1.806C32.491.81 31.683 0 30.685 0Z" fill="#0071BC"/><path d="M13.761 11.627a6.495 6.495 0 0 1 2.473-5.106 6.516 6.516 0 1 0 0 10.215 6.5 6.5 0 0 1-2.473-5.109Z" fill="#E71B26"/><path d="M16.234 16.736c1.366 0 2.473-2.287 2.473-5.109 0-2.821-1.107-5.109-2.473-5.109-1.366 0-2.473 2.288-2.473 5.11 0 2.82 1.107 5.108 2.473 5.108Z" fill="#F36523"/><path d="M20.275 5.113a6.467 6.467 0 0 0-4.04 1.408 6.511 6.511 0 0 1 0 10.215 6.514 6.514 0 1 0 4.04-11.623Z" fill="#FA9F1B"/></svg>