<svg width="34" height="24" fill="none" xmlns="http://www.w3.org/2000/svg"><path d="M31.523 0H2.644C1.647 0 .838.809.838 1.806v19.508c0 .998.809 1.807 1.806 1.807h28.879c.997 0 1.806-.809 1.806-1.807V1.806C33.33.81 32.52 0 31.523 0Z" fill="#F3F3F3"/><path fill-rule="evenodd" clip-rule="evenodd" d="m13.644 14.384.918-5.678h1.468l-.917 5.678h-1.469ZM20.436 8.844a3.616 3.616 0 0 0-1.317-.242c-1.452 0-2.471.775-2.478 1.88-.011.815.731 1.27 1.287 1.541.555.272.76.46.76.706 0 .38-.458.556-.88.556-.478.013-.95-.09-1.379-.302l-.193-.09-.206 1.274a4.49 4.49 0 0 0 1.637.308c1.542 0 2.545-.761 2.557-1.94 0-.647-.387-1.143-1.233-1.546-.513-.26-.835-.436-.835-.701 0-.266.274-.486.853-.486.377-.012.751.063 1.095.217l.131.06.2-1.226v-.009ZM22.386 12.374c.122-.334.587-1.59.587-1.59l.194-.543.102.489s.278 1.358.333 1.644h-1.216ZM24.2 8.702h-1.137c-.35 0-.615.102-.767.471l-2.181 5.211h1.54l.309-.85h1.885c.042.198.175.85.175.85h1.36L24.2 8.711v-.009ZM12.418 8.706l-1.439 3.873-.157-.786c-.267-.906-1.1-1.89-2.037-2.38l1.318 4.966h1.552l2.308-5.673h-1.545Z" fill="#00529B"/><path fill-rule="evenodd" clip-rule="evenodd" d="M9.644 8.706h-2.36l-.026.115c1.836.47 3.064 1.607 3.566 2.972l-.515-2.61c-.085-.362-.344-.466-.668-.477h.003Z" fill="#F5AB00"/><path d="M33.395 17.171H.837v4.237c0 .985.8 1.784 1.784 1.784h28.99c.986 0 1.784-.799 1.784-1.784v-4.237Z" fill="#F5AB00"/><path d="M31.612 0H2.622C1.637 0 .838.799.838 1.784v4.014h32.558V1.784C33.396.799 32.597 0 31.612 0Z" fill="#00529B"/></svg>