<svg width="40" height="27" fill="none" xmlns="http://www.w3.org/2000/svg"><path d="M39.388 5.423c0 2.718-2.153 4.921-4.808 4.921-2.656 0-4.809-2.203-4.809-4.92 0-2.718 2.153-4.922 4.809-4.922 2.655 0 4.808 2.204 4.808 4.921Z" fill="#F5850B"/><path d="M.753 7.748a4.883 4.883 0 1 1 8.76-4.321l7.777 15.765a4.883 4.883 0 1 1-8.759 4.322L.753 7.748ZM15.445 7.748a4.883 4.883 0 1 1 8.76-4.321l7.777 15.765a4.883 4.883 0 0 1-8.759 4.322L15.445 7.748Z" fill="#191847"/><path d="M15.197 3.508a4.883 4.883 0 0 1 9.017 3.754l-6.757 16.23a4.883 4.883 0 1 1-9.016-3.754l6.756-16.23Z" fill="#191847"/></svg>